<?xml version="1.0" standalone="no"?><!DOCTYPE svg PUBLIC "-//W3C//DTD SVG 1.1//EN" "http://www.w3.org/Graphics/SVG/1.1/DTD/svg11.dtd"><svg t="1508905993962" class="icon" style="" viewBox="0 0 1024 1024" version="1.1" xmlns="http://www.w3.org/2000/svg" p-id="1356" xmlns:xlink="http://www.w3.org/1999/xlink" width="128" height="128"><defs><style type="text/css"></style></defs><path d="M511.644399 0c-282.561447 0-511.623423 229.061976-511.623423 511.623423s229.061976 511.623423 511.623423 511.623423 511.623423-229.062999 511.623423-511.624447S794.205846 0 511.644399 0zM511.644399 927.315984c-229.581816 0-415.693584-186.112792-415.693584-415.693584S282.062584 95.927793 511.644399 95.927793c229.580792 0 415.694607 186.112792 415.694607 415.693584S741.226215 927.315984 511.644399 927.315984z" p-id="1357" fill="#f5be58"></path><path d="M447.525056 219.961714 575.452657 219.961714 575.452657 360.287693 447.525056 360.287693 447.525056 219.961714Z" p-id="1358" fill="#f5be58"></path><path d="M447.525056 413.905868 575.452657 413.905868 575.452657 803.285133 447.525056 803.285133 447.525056 413.905868Z" p-id="1359" fill="#f5be58"></path></svg>